<?xml version="1.0" encoding="utf-8"?>
<svg version="1.1" width="700" height="400"
    xmlns="http://www.w3.org/2000/svg">

    <style type="text/css">
    </style>

    <defs>
        <pattern id="bg" patternUnits="userSpaceOnUse" width="700" height="400">
            <image href="./bg1.jpg" x="0" y="0" width="700" height="400" />
        </pattern>
        <linearGradient id="star-colour">
            <stop stop-color="#80cbc4" />
        </linearGradient>
        <linearGradient id="star-bg-colour">
            <stop offset="5%" stop-color="#000000" />
            <stop offset="67%" stop-color="transparent" />
        </linearGradient>
        <linearGradient id="item-bg-colour">
            <stop stop-color="#bb3830" />
        </linearGradient>
    </defs>
    <g>
        <rect x="0" y="0" width="700" height="400" rx="15" fill="url(#bg)" />
        <rect x="0" y="0" width="700" height="400" rx="15" fill="#000000" fill-opacity="0.7" />

        <rect x="200" y="8%" width="100%" height="68" rx="15" fill="url(#star-bg-colour)" />

        <image x="1" y="10" width="170" height="170" href="./cronus.png" />

        <g stroke="url(#star-colour)" fill="url(#star-colour)">
            <path transform="scale(2) translate(110 20)" fill="transparent" d="M12 .587l3.668 7.568 8.332 1.151-6.064 5.828 1.48 8.279-7.416-3.967-7.417 3.967 1.481-8.279-6.064-5.828 8.332-1.151z"/>
            <path transform="scale(2) translate(110 20)" d="M12 .587l3.668 7.568 8.332 1.151-6.064 5.828 1.48 8.279-7.416-3.967-7.417 3.967 1.481-8.279-6.064-5.828 8.332-1.151z"/>
            <path transform="scale(2) translate(110 20)" d="M 12 0.587 L 12.013 19.436 L 4.583 23.413 L 6.064 15.134 L 0 9.306 L 8.332 8.155 L 12 0.587 Z"/>

            <path transform="scale(2) translate(145 20)" fill="transparent" d="M12 .587l3.668 7.568 8.332 1.151-6.064 5.828 1.48 8.279-7.416-3.967-7.417 3.967 1.481-8.279-6.064-5.828 8.332-1.151z"/>
            <path transform="scale(2) translate(145 20)" d="M12 .587l3.668 7.568 8.332 1.151-6.064 5.828 1.48 8.279-7.416-3.967-7.417 3.967 1.481-8.279-6.064-5.828 8.332-1.151z"/>
            <path transform="scale(2) translate(145 20)" d="M 12 0.587 L 12.013 19.436 L 4.583 23.413 L 6.064 15.134 L 0 9.306 L 8.332 8.155 L 12 0.587 Z"/>

            <path transform="scale(2) translate(180 20)" fill="transparent" d="M12 .587l3.668 7.568 8.332 1.151-6.064 5.828 1.48 8.279-7.416-3.967-7.417 3.967 1.481-8.279-6.064-5.828 8.332-1.151z"/>
            <path transform="scale(2) translate(180 20)" d="M12 .587l3.668 7.568 8.332 1.151-6.064 5.828 1.48 8.279-7.416-3.967-7.417 3.967 1.481-8.279-6.064-5.828 8.332-1.151z"/>
            <path transform="scale(2) translate(180 20)" d="M 12 0.587 L 12.013 19.436 L 4.583 23.413 L 6.064 15.134 L 0 9.306 L 8.332 8.155 L 12 0.587 Z"/>

            <path transform="scale(2) translate(215 20)" fill="transparent" d="M12 .587l3.668 7.568 8.332 1.151-6.064 5.828 1.48 8.279-7.416-3.967-7.417 3.967 1.481-8.279-6.064-5.828 8.332-1.151z"/>
            <path transform="scale(2) translate(215 20)" d="M 12 0.587 L 12.013 19.436 L 4.583 23.413 L 6.064 15.134 L 0 9.306 L 8.332 8.155 L 12 0.587 Z"/>
            <!-- <path transform="scale(2) translate(215 20)" d="M12 .587l3.668 7.568 8.332 1.151-6.064 5.828 1.48 8.279-7.416-3.967-7.417 3.967 1.481-8.279-6.064-5.828 8.332-1.151z"/> -->

            <path transform="scale(2) translate(250 20)" fill="transparent" d="M12 .587l3.668 7.568 8.332 1.151-6.064 5.828 1.48 8.279-7.416-3.967-7.417 3.967 1.481-8.279-6.064-5.828 8.332-1.151z"/>
            <!-- <path transform="scale(2) translate(250 20)" d="M 12 0.587 L 12.013 19.436 L 4.583 23.413 L 6.064 15.134 L 0 9.306 L 8.332 8.155 L 12 0.587 Z"/> -->
            <!-- <path transform="scale(2) translate(250 20)" d="M12 .587l3.668 7.568 8.332 1.151-6.064 5.828 1.48 8.279-7.416-3.967-7.417 3.967 1.481-8.279-6.064-5.828 8.332-1.151z"/> -->
        </g>

        <rect x="13" y="215" width="145" height="145" stroke="white" rx="5" fill="url(#item-bg-colour)" />
        <image x="13" y="215" width="145" height="145" href="https://app.nmsassistant.com/assets/images/cooking/193.png" />

        <text x="200" y="150" width="450" font-size="25" text-anchor="start" fill="white">A more delightable dish I have not</text>
        <text x="200" y="185" width="450" font-size="25" text-anchor="start" fill="white">tasted traveller!</text>

        <text x="200" y="68%" width="450" font-size="35" text-anchor="start" fill="white">'Apple' Ice Cream</text>

        <text x="34%" y="80%" width="65%" font-size="25" text-anchor="start" fill="white">± 94</text>
        <image x="27%" y="73%" width="42" height="42" href="https://app.nmsassistant.com/assets/images/rawMaterials/56.png" />

        <text x="98.5%" y="96%" font-size="10" text-anchor="end" fill="white">nomanssky.social</text>
    </g>
</svg>
